<?xml version="1.0" standalone="no"?>
<!DOCTYPE svg PUBLIC "-//W3C//DTD SVG 20010904//EN"
 "http://www.w3.org/TR/2001/REC-SVG-20010904/DTD/svg10.dtd">
<svg version="1.0" xmlns="http://www.w3.org/2000/svg"
 width="345.000000pt" height="346.000000pt" viewBox="0 0 345.000000 346.000000"
 preserveAspectRatio="xMidYMid meet">
<metadata>
Created by potrace 1.15, written by Peter Selinger 2001-2017
</metadata>
<g transform="translate(0.000000,346.000000) scale(0.100000,-0.100000)"
fill="#000000" stroke="none">
<path d="M0 1730 l0 -1730 875 0 875 0 0 34 0 33 -113 6 c-414 22 -798 196
-1088 494 -251 257 -397 550 -459 918 -15 91 -15 378 0 480 63 428 298 826
639 1084 263 199 620 330 901 331 107 0 120 5 120 46 l0 34 -875 0 -875 0 0
-1730z"/>
<path d="M1595 2780 l-130 -59 0 -133 c0 -128 1 -135 32 -199 41 -87 90 -140
167 -180 l63 -33 47 18 c69 26 149 105 188 184 32 65 33 69 33 206 l0 139
-118 53 c-66 29 -126 55 -135 58 -10 2 -75 -22 -147 -54z m135 -140 l0 -130
105 0 c58 0 105 -4 105 -8 0 -28 -32 -106 -59 -145 -33 -48 -108 -107 -135
-107 -14 0 -16 19 -16 130 l0 130 -105 0 -106 0 3 86 3 87 95 42 c52 24 98 44
103 44 4 1 7 -57 7 -129z"/>
<path d="M570 1741 l0 -131 79 0 c80 0 129 11 143 33 15 23 8 76 -11 89 -17
12 -17 16 -5 33 20 27 17 59 -7 81 -17 15 -40 20 -110 22 l-89 4 0 -131z"/>
<path d="M1480 1740 l0 -130 80 0 c93 0 134 16 144 56 7 28 -15 74 -36 74 -6
0 -4 8 5 18 18 19 22 59 9 78 -15 24 -54 34 -126 34 l-76 0 0 -130z"/>
<path d="M2510 1830 c0 -11 -7 -20 -15 -20 -8 0 -15 -9 -15 -20 0 -11 6 -20
14 -20 10 0 15 -19 18 -66 5 -75 22 -97 73 -92 41 4 47 35 8 40 -27 3 -28 6
-31 61 -3 55 -2 57 23 57 18 0 25 5 25 20 0 15 -7 20 -25 20 -18 0 -25 5 -25
20 0 15 -7 20 -25 20 -18 0 -25 -5 -25 -20z"/>
<path d="M850 1745 c0 -35 5 -75 11 -89 16 -35 61 -52 105 -38 19 6 34 6 34 1
0 -5 11 -9 25 -9 l25 0 0 100 0 100 -25 0 c-24 0 -25 -2 -25 -63 0 -69 -17
-97 -56 -97 -34 0 -44 21 -44 92 0 66 -1 68 -25 68 -24 0 -25 -2 -25 -65z"/>
<path d="M1139 1795 c-81 -44 -45 -169 49 -169 20 0 45 4 55 8 23 11 23 -16 0
-39 -15 -16 -67 -18 -112 -4 -8 2 -16 -4 -19 -13 -8 -37 116 -48 162 -15 23
17 35 76 36 170 0 75 -1 77 -24 77 -13 0 -26 -5 -28 -11 -3 -9 -9 -9 -25 0
-29 15 -62 13 -94 -4z"/>
<path d="M1791 1796 c-90 -50 -50 -186 55 -186 55 0 104 47 104 100 0 76 -90
124 -159 86z"/>
<path d="M2000 1731 c0 -74 2 -81 26 -100 30 -23 65 -27 97 -10 16 9 22 9 25
0 2 -6 12 -11 23 -11 17 0 19 8 19 100 l0 100 -25 0 c-24 0 -25 -2 -25 -64 0
-71 -14 -96 -55 -96 -33 0 -45 27 -45 99 0 54 -2 61 -20 61 -18 0 -20 -7 -20
-79z"/>
<path d="M2250 1710 l0 -100 25 0 c24 0 25 2 25 68 0 74 10 92 50 92 40 0 50
-18 50 -92 0 -66 1 -68 25 -68 24 0 25 3 25 59 0 32 -5 72 -10 88 -17 46 -76
67 -123 42 -16 -9 -22 -9 -25 0 -2 6 -12 11 -23 11 -17 0 -19 -8 -19 -100z"/>
<path d="M2640 1804 c0 -3 19 -48 41 -100 36 -80 40 -96 28 -110 -8 -10 -22
-14 -40 -10 -19 3 -29 0 -33 -10 -9 -23 -9 -23 29 -30 63 -11 76 6 172 234 12
30 12 32 -7 32 -16 0 -28 -17 -54 -72 -32 -69 -34 -72 -44 -48 -43 104 -52
120 -72 120 -11 0 -20 -3 -20 -6z"/>
<path d="M930 1340 l0 -130 25 0 c23 0 25 4 25 40 l0 40 45 0 c88 0 137 52
113 121 -14 41 -58 59 -143 59 l-65 0 0 -130z"/>
<path d="M1394 1401 c-56 -24 -72 -109 -30 -158 21 -24 32 -28 75 -28 41 0 55
5 77 27 37 36 37 99 2 135 -27 27 -89 39 -124 24z"/>
<path d="M1634 1400 c-87 -35 -62 -173 32 -174 22 -1 49 3 61 7 19 7 22 5 16
-10 -3 -10 -10 -24 -16 -30 -12 -16 -71 -17 -99 -2 -16 9 -23 8 -29 -2 -15
-23 -11 -28 33 -40 57 -15 108 -5 136 26 20 24 22 37 22 131 0 96 -2 104 -19
104 -11 0 -21 -5 -23 -11 -3 -9 -9 -9 -25 0 -25 13 -59 13 -89 1z"/>
<path d="M2028 1399 c-45 -17 -25 -40 28 -32 28 4 49 1 59 -7 25 -21 17 -30
-28 -30 -55 0 -87 -22 -87 -60 0 -48 61 -76 111 -50 13 7 19 7 19 0 0 -5 9
-10 20 -10 18 0 20 7 20 79 0 74 -2 81 -26 100 -28 22 -72 26 -116 10z"/>
<path d="M2240 1310 c0 -93 1 -100 20 -100 18 0 20 7 20 64 0 70 14 96 54 96
36 0 46 -19 46 -92 0 -66 1 -68 25 -68 24 0 25 2 25 68 0 72 10 92 45 92 35 0
45 -20 45 -92 0 -67 1 -68 26 -68 l26 0 -4 81 c-3 70 -6 83 -27 100 -27 22
-65 24 -101 6 -21 -11 -30 -10 -54 2 -23 11 -38 12 -68 4 -21 -6 -38 -6 -38
-2 0 5 -9 9 -20 9 -19 0 -20 -7 -20 -100z"/>
</g>
</svg>
